<mxfile host="app.diagrams.net" modified="2022-06-02T00:29:57.024Z" agent="5.0 (Windows NT 10.0; Win64; x64) AppleWebKit/537.36 (KHTML, like Gecko) Chrome/102.0.5005.63 Safari/537.36" etag="FIctHz5zIiFIBou9mv7d" version="18.1.3" type="github">
  <diagram id="cTWVXvlOjMiQOvwmBr1u" name="Page-1">
    <mxGraphModel dx="1038" dy="579" grid="1" gridSize="10" guides="1" tooltips="1" connect="1" arrows="1" fold="1" page="1" pageScale="1" pageWidth="827" pageHeight="1169" math="0" shadow="0">
      <root>
        <mxCell id="0" />
        <mxCell id="1" parent="0" />
        <mxCell id="3kUF8BmXOeaKGdXSCLxE-1" value="&amp;nbsp; &amp;nbsp; 数据资产平台" style="rounded=1;whiteSpace=wrap;html=1;fillColor=#d5e8d4;strokeColor=#82b366;fontSize=18;" vertex="1" parent="1">
          <mxGeometry x="220" y="270" width="200" height="60" as="geometry" />
        </mxCell>
        <mxCell id="3kUF8BmXOeaKGdXSCLxE-2" value="&amp;nbsp; &amp;nbsp; &amp;nbsp; 数据交换平台" style="rounded=1;whiteSpace=wrap;html=1;fillColor=#e1d5e7;strokeColor=#9673a6;fontSize=18;" vertex="1" parent="1">
          <mxGeometry x="430" y="270" width="200" height="60" as="geometry" />
        </mxCell>
        <mxCell id="3kUF8BmXOeaKGdXSCLxE-3" value="汇聚业务系统的数据" style="rounded=1;whiteSpace=wrap;html=1;fontSize=18;fillColor=#f5f5f5;fontColor=#333333;strokeColor=#666666;" vertex="1" parent="1">
          <mxGeometry x="220" y="350" width="410" height="60" as="geometry" />
        </mxCell>
        <mxCell id="3kUF8BmXOeaKGdXSCLxE-4" value="" style="aspect=fixed;perimeter=ellipsePerimeter;html=1;align=center;shadow=0;dashed=0;spacingTop=3;image;image=img/lib/active_directory/database_cube.svg;fontSize=18;" vertex="1" parent="1">
          <mxGeometry x="230" y="280" width="36" height="40" as="geometry" />
        </mxCell>
        <mxCell id="3kUF8BmXOeaKGdXSCLxE-5" value="师生一张表" style="rounded=1;whiteSpace=wrap;html=1;fillColor=#dae8fc;strokeColor=#6c8ebf;fontSize=18;verticalAlign=top;" vertex="1" parent="1">
          <mxGeometry x="220" y="120" width="410" height="130" as="geometry" />
        </mxCell>
        <mxCell id="3kUF8BmXOeaKGdXSCLxE-6" value="" style="aspect=fixed;perimeter=ellipsePerimeter;html=1;align=center;shadow=0;dashed=0;spacingTop=3;image;image=img/lib/active_directory/database_partition_3.svg;fontSize=18;" vertex="1" parent="1">
          <mxGeometry x="260" y="362" width="50" height="37" as="geometry" />
        </mxCell>
        <mxCell id="3kUF8BmXOeaKGdXSCLxE-7" value="" style="sketch=0;pointerEvents=1;shadow=0;dashed=0;html=1;strokeColor=none;fillColor=#505050;labelPosition=center;verticalLabelPosition=bottom;verticalAlign=top;outlineConnect=0;align=center;shape=mxgraph.office.communications.exchange_active_sync;fillColor=#2072B8;fontSize=18;" vertex="1" parent="1">
          <mxGeometry x="440" y="281" width="40" height="39" as="geometry" />
        </mxCell>
      </root>
    </mxGraphModel>
  </diagram>
</mxfile>
